<svg aria-roledescription="flowchart-v2" role="graphics-document document" viewBox="-8 -8 745.41552734375 2404.859375" style="max-width: 745.416px; background-color: white;" xmlns:xlink="http://www.w3.org/1999/xlink" xmlns="http://www.w3.org/2000/svg" width="100%" id="my-svg"><style>#my-svg{font-family:Times New Roman,serif;font-size:12px;fill:#000000;}#my-svg .error-icon{fill:hsl(180, 0%, 100%);}#my-svg .error-text{fill:rgb(0, 0, 0);stroke:rgb(0, 0, 0);}#my-svg .edge-thickness-normal{stroke-width:2px;}#my-svg .edge-thickness-thick{stroke-width:3.5px;}#my-svg .edge-pattern-solid{stroke-dasharray:0;}#my-svg .edge-pattern-dashed{stroke-dasharray:3;}#my-svg .edge-pattern-dotted{stroke-dasharray:2;}#my-svg .marker{fill:#333333;stroke:#333333;}#my-svg .marker.cross{stroke:#333333;}#my-svg svg{font-family:Times New Roman,serif;font-size:12px;}#my-svg .label{font-family:Times New Roman,serif;color:#000000;}#my-svg .cluster-label text{fill:rgb(0, 0, 0);}#my-svg .cluster-label span,#my-svg p{color:rgb(0, 0, 0);}#my-svg .label text,#my-svg span,#my-svg p{fill:#000000;color:#000000;}#my-svg .node rect,#my-svg .node circle,#my-svg .node ellipse,#my-svg .node polygon,#my-svg .node path{fill:#FFFFFF;stroke:#333333;stroke-width:1px;}#my-svg .flowchart-label text{text-anchor:middle;}#my-svg .node .katex path{fill:#000;stroke:#000;stroke-width:1px;}#my-svg .node .label{text-align:center;}#my-svg .node.clickable{cursor:pointer;}#my-svg .arrowheadPath{fill:#000000;}#my-svg .edgePath .path{stroke:#333333;stroke-width:2.0px;}#my-svg .flowchart-link{stroke:#333333;fill:none;}#my-svg .edgeLabel{background-color:#FFFFFF;text-align:center;}#my-svg .edgeLabel rect{opacity:0.5;background-color:#FFFFFF;fill:#FFFFFF;}#my-svg .labelBkg{background-color:rgba(255, 255, 255, 0.5);}#my-svg .cluster rect{fill:#FFFFFF;stroke:#333333;stroke-width:1px;}#my-svg .cluster text{fill:rgb(0, 0, 0);}#my-svg .cluster span,#my-svg p{color:rgb(0, 0, 0);}#my-svg div.mermaidTooltip{position:absolute;text-align:center;max-width:200px;padding:2px;font-family:Times New Roman,serif;font-size:12px;background:hsl(180, 0%, 100%);border:1px solid hsl(180, 0%, 90%);border-radius:2px;pointer-events:none;z-index:100;}#my-svg .flowchartTitleText{text-anchor:middle;font-size:18px;fill:#000000;}#my-svg :root{--mermaid-font-family:"trebuchet ms",verdana,arial,sans-serif;}#my-svg .input rect{fill:#FFFFFF!important;stroke:#000000!important;stroke-width:1px!important;color:#000000!important;}#my-svg .input polygon{fill:#FFFFFF!important;stroke:#000000!important;stroke-width:1px!important;color:#000000!important;}#my-svg .input ellipse{fill:#FFFFFF!important;stroke:#000000!important;stroke-width:1px!important;color:#000000!important;}#my-svg .input circle{fill:#FFFFFF!important;stroke:#000000!important;stroke-width:1px!important;color:#000000!important;}#my-svg .input path{fill:#FFFFFF!important;stroke:#000000!important;stroke-width:1px!important;color:#000000!important;}#my-svg .input tspan{fill:#000000!important;}#my-svg .process rect{fill:#FFFFFF!important;stroke:#333333!important;stroke-width:1px!important;color:#000000!important;}#my-svg .process polygon{fill:#FFFFFF!important;stroke:#333333!important;stroke-width:1px!important;color:#000000!important;}#my-svg .process ellipse{fill:#FFFFFF!important;stroke:#333333!important;stroke-width:1px!important;color:#000000!important;}#my-svg .process circle{fill:#FFFFFF!important;stroke:#333333!important;stroke-width:1px!important;color:#000000!important;}#my-svg .process path{fill:#FFFFFF!important;stroke:#333333!important;stroke-width:1px!important;color:#000000!important;}#my-svg .process tspan{fill:#000000!important;}#my-svg .decision rect{fill:#F2F2F2!important;stroke:#333333!important;stroke-width:1px!important;color:#000000!important;}#my-svg .decision polygon{fill:#F2F2F2!important;stroke:#333333!important;stroke-width:1px!important;color:#000000!important;}#my-svg .decision ellipse{fill:#F2F2F2!important;stroke:#333333!important;stroke-width:1px!important;color:#000000!important;}#my-svg .decision circle{fill:#F2F2F2!important;stroke:#333333!important;stroke-width:1px!important;color:#000000!important;}#my-svg .decision path{fill:#F2F2F2!important;stroke:#333333!important;stroke-width:1px!important;color:#000000!important;}#my-svg .decision tspan{fill:#000000!important;}#my-svg .output rect{fill:#EDEDED!important;stroke:#000000!important;stroke-width:1px!important;color:#000000!important;}#my-svg .output polygon{fill:#EDEDED!important;stroke:#000000!important;stroke-width:1px!important;color:#000000!important;}#my-svg .output ellipse{fill:#EDEDED!important;stroke:#000000!important;stroke-width:1px!important;color:#000000!important;}#my-svg .output circle{fill:#EDEDED!important;stroke:#000000!important;stroke-width:1px!important;color:#000000!important;}#my-svg .output path{fill:#EDEDED!important;stroke:#000000!important;stroke-width:1px!important;color:#000000!important;}#my-svg .output tspan{fill:#000000!important;}#my-svg .error rect{fill:#F7F7F7!important;stroke:#333333!important;stroke-width:1px!important;color:#000000!important;stroke-dasharray:4 2!important;}#my-svg .error polygon{fill:#F7F7F7!important;stroke:#333333!important;stroke-width:1px!important;color:#000000!important;stroke-dasharray:4 2!important;}#my-svg .error ellipse{fill:#F7F7F7!important;stroke:#333333!important;stroke-width:1px!important;color:#000000!important;stroke-dasharray:4 2!important;}#my-svg .error circle{fill:#F7F7F7!important;stroke:#333333!important;stroke-width:1px!important;color:#000000!important;stroke-dasharray:4 2!important;}#my-svg .error path{fill:#F7F7F7!important;stroke:#333333!important;stroke-width:1px!important;color:#000000!important;stroke-dasharray:4 2!important;}#my-svg .error tspan{fill:#000000!important;}</style><g><marker orient="auto" markerHeight="12" markerWidth="12" markerUnits="userSpaceOnUse" refY="5" refX="6" viewBox="0 0 10 10" class="marker flowchart" id="my-svg_flowchart-pointEnd"><path style="stroke-width: 1; stroke-dasharray: 1, 0;" class="arrowMarkerPath" d="M 0 0 L 10 5 L 0 10 z"/></marker><marker orient="auto" markerHeight="12" markerWidth="12" markerUnits="userSpaceOnUse" refY="5" refX="4.5" viewBox="0 0 10 10" class="marker flowchart" id="my-svg_flowchart-pointStart"><path style="stroke-width: 1; stroke-dasharray: 1, 0;" class="arrowMarkerPath" d="M 0 5 L 10 10 L 10 0 z"/></marker><marker orient="auto" markerHeight="11" markerWidth="11" markerUnits="userSpaceOnUse" refY="5" refX="11" viewBox="0 0 10 10" class="marker flowchart" id="my-svg_flowchart-circleEnd"><circle style="stroke-width: 1; stroke-dasharray: 1, 0;" class="arrowMarkerPath" r="5" cy="5" cx="5"/></marker><marker orient="auto" markerHeight="11" markerWidth="11" markerUnits="userSpaceOnUse" refY="5" refX="-1" viewBox="0 0 10 10" class="marker flowchart" id="my-svg_flowchart-circleStart"><circle style="stroke-width: 1; stroke-dasharray: 1, 0;" class="arrowMarkerPath" r="5" cy="5" cx="5"/></marker><marker orient="auto" markerHeight="11" markerWidth="11" markerUnits="userSpaceOnUse" refY="5.2" refX="12" viewBox="0 0 11 11" class="marker cross flowchart" id="my-svg_flowchart-crossEnd"><path style="stroke-width: 2; stroke-dasharray: 1, 0;" class="arrowMarkerPath" d="M 1,1 l 9,9 M 10,1 l -9,9"/></marker><marker orient="auto" markerHeight="11" markerWidth="11" markerUnits="userSpaceOnUse" refY="5.2" refX="-1" viewBox="0 0 11 11" class="marker cross flowchart" id="my-svg_flowchart-crossStart"><path style="stroke-width: 2; stroke-dasharray: 1, 0;" class="arrowMarkerPath" d="M 1,1 l 9,9 M 10,1 l -9,9"/></marker><g class="root"><g class="clusters"><g id="GND2IMG" class="cluster default flowchart-label"><rect height="962.5859375" width="618.37548828125" y="1335.2734375" x="111.0400390625" ry="0" rx="0" style="fill:#FFFFFF;stroke:#000000;stroke-width:1.2px;stroke-dasharray:8 5;"/><g transform="translate(420.227783203125, 1335.2734375)" class="cluster-label"><text style=""><tspan class="row" x="0" dy="1em" xml:space="preserve">Ground-to-Image Back Projection</tspan></text></g></g><g id="IMG2GND" class="cluster default flowchart-label"><rect height="883.2734375" width="560.455078125" y="402" x="0" ry="0" rx="0" style="fill:#FFFFFF;stroke:#000000;stroke-width:1.2px;stroke-dasharray:8 5;"/><g transform="translate(280.2275390625, 402)" class="cluster-label"><text style=""><tspan class="row" x="0" dy="1em" xml:space="preserve">Image-to-Ground Projection</tspan></text></g></g><g id="INIT" class="cluster default flowchart-label"><rect height="261" width="218.296875" y="91" x="119.181640625" ry="0" rx="0" style="fill:#FFFFFF;stroke:#000000;stroke-width:1.2px;stroke-dasharray:8 5;"/><g transform="translate(228.330078125, 91)" class="cluster-label"><text style=""><tspan class="row" x="0" dy="1em" xml:space="preserve">Camera Model Initialization</tspan></text></g></g></g><g class="edgePaths"><path marker-end="url(#my-svg_flowchart-pointEnd)" style="stroke:#333333;stroke-width:1px;" class="edge-thickness-normal edge-pattern-solid flowchart-link LS-A LE-B" id="L-A-B-0" d="M228.33,41L228.33,45.167C228.33,49.333,228.33,57.667,228.33,66C228.33,74.333,228.33,82.667,228.33,90.117C228.33,97.567,228.33,104.133,228.33,107.417L228.33,110.7"/><path marker-end="url(#my-svg_flowchart-pointEnd)" style="stroke:#333333;stroke-width:1px;" class="edge-thickness-normal edge-pattern-solid flowchart-link LS-B LE-C" id="L-B-C-0" d="M228.33,157L228.33,161.167C228.33,165.333,228.33,173.667,228.33,181.117C228.33,188.567,228.33,195.133,228.33,198.417L228.33,201.7"/><path marker-end="url(#my-svg_flowchart-pointEnd)" style="stroke:#333333;stroke-width:1px;" class="edge-thickness-normal edge-pattern-solid flowchart-link LS-C LE-D" id="L-C-D-0" d="M228.33,248L228.33,252.167C228.33,256.333,228.33,264.667,228.33,272.117C228.33,279.567,228.33,286.133,228.33,289.417L228.33,292.7"/><path marker-end="url(#my-svg_flowchart-pointEnd)" style="stroke:#333333;stroke-width:1px;" class="edge-thickness-normal edge-pattern-solid flowchart-link LS-D LE-I0" id="L-D-I0-0" d="M228.33,327L228.33,331.167C228.33,335.333,228.33,343.667,228.33,352C228.33,360.333,228.33,368.667,228.33,377C228.33,385.333,228.33,393.667,228.33,401.117C228.33,408.567,228.33,415.133,228.33,418.417L228.33,421.7"/><path marker-end="url(#my-svg_flowchart-pointEnd)" style="stroke:#333333;stroke-width:1px;" class="edge-thickness-normal edge-pattern-solid flowchart-link LS-I0 LE-I1" id="L-I0-I1-0" d="M228.33,468L228.33,472.167C228.33,476.333,228.33,484.667,228.33,492.117C228.33,499.567,228.33,506.133,228.33,509.417L228.33,512.7"/><path marker-end="url(#my-svg_flowchart-pointEnd)" style="stroke:#333333;stroke-width:1px;" class="edge-thickness-normal edge-pattern-solid flowchart-link LS-I1 LE-I2" id="L-I1-I2-0" d="M228.33,559L228.33,563.167C228.33,567.333,228.33,575.667,228.396,583.2C228.462,590.734,228.594,597.467,228.66,600.834L228.726,604.201"/><path marker-end="url(#my-svg_flowchart-pointEnd)" style="stroke:#333333;stroke-width:1px;" class="edge-thickness-normal edge-pattern-solid flowchart-link LS-I2 LE-IERR" id="L-I2-IERR-0" d="M193.973,704.627L181.001,715.687C168.029,726.746,142.085,748.865,129.113,775.149C116.141,801.433,116.141,831.881,116.141,847.105L116.141,862.329"/><path marker-end="url(#my-svg_flowchart-pointEnd)" style="stroke:#333333;stroke-width:1px;" class="edge-thickness-normal edge-pattern-solid flowchart-link LS-I2 LE-I3" id="L-I2-I3-0" d="M262.905,705.41L274.958,716.339C287.012,727.268,311.119,749.126,323.243,764.589C335.366,780.051,335.506,789.118,335.575,793.652L335.645,798.185"/><path marker-end="url(#my-svg_flowchart-pointEnd)" style="stroke:#333333;stroke-width:1px;" class="edge-thickness-normal edge-pattern-solid flowchart-link LS-I3 LE-IERR2" id="L-I3-IERR2-0" d="M295.164,933.211L284.077,945.221C272.991,957.232,250.817,981.253,239.73,997.713C228.644,1014.173,228.644,1023.073,228.644,1027.523L228.644,1031.973"/><path marker-end="url(#my-svg_flowchart-pointEnd)" style="stroke:#333333;stroke-width:1px;" class="edge-thickness-normal edge-pattern-solid flowchart-link LS-I3 LE-I4" id="L-I3-I4-0" d="M376.289,933.211L387.209,945.221C398.129,957.232,419.969,981.253,430.889,997.713C441.81,1014.173,441.81,1023.073,441.81,1027.523L441.81,1031.973"/><path marker-end="url(#my-svg_flowchart-pointEnd)" style="stroke:#333333;stroke-width:1px;" class="edge-thickness-normal edge-pattern-solid flowchart-link LS-I4 LE-I5" id="L-I4-I5-0" d="M441.81,1078.273L441.81,1082.44C441.81,1086.607,441.81,1094.94,441.81,1102.39C441.81,1109.84,441.81,1116.407,441.81,1119.69L441.81,1122.973"/><path marker-end="url(#my-svg_flowchart-pointEnd)" style="stroke:#333333;stroke-width:1px;" class="edge-thickness-normal edge-pattern-solid flowchart-link LS-I5 LE-IOUT" id="L-I5-IOUT-0" d="M441.81,1169.273L441.81,1173.44C441.81,1177.607,441.81,1185.94,441.81,1193.39C441.81,1200.84,441.81,1207.407,441.81,1210.69L441.81,1213.973"/><path marker-end="url(#my-svg_flowchart-pointEnd)" style="stroke:#333333;stroke-width:1px;" class="edge-thickness-normal edge-pattern-solid flowchart-link LS-IOUT LE-G0" id="L-IOUT-G0-0" d="M441.81,1260.273L441.81,1264.44C441.81,1268.607,441.81,1276.94,441.81,1285.273C441.81,1293.607,441.81,1301.94,441.81,1310.273C441.81,1318.607,441.81,1326.94,441.81,1334.39C441.81,1341.84,441.81,1348.407,441.81,1351.69L441.81,1354.973"/><path marker-end="url(#my-svg_flowchart-pointEnd)" style="stroke:#333333;stroke-width:1px;" class="edge-thickness-normal edge-pattern-solid flowchart-link LS-G0 LE-G1" id="L-G0-G1-0" d="M441.81,1401.273L441.81,1405.44C441.81,1409.607,441.81,1417.94,441.876,1425.474C441.942,1433.007,442.074,1439.741,442.14,1443.108L442.206,1446.474"/><path marker-end="url(#my-svg_flowchart-pointEnd)" style="stroke:#333333;stroke-width:1px;" class="edge-thickness-normal edge-pattern-solid flowchart-link LS-G1 LE-G2" id="L-G1-G2-0" d="M404.46,1537.565L385.996,1549.123C367.531,1560.681,330.602,1583.798,312.137,1599.806C293.673,1615.814,293.673,1624.714,293.673,1629.164L293.673,1633.614"/><path marker-end="url(#my-svg_flowchart-pointEnd)" style="stroke:#333333;stroke-width:1px;" class="edge-thickness-normal edge-pattern-solid flowchart-link LS-G1 LE-G3" id="L-G1-G3-0" d="M480.723,1537.001L499.898,1548.653C519.073,1560.305,557.424,1583.61,576.6,1599.712C595.775,1615.814,595.775,1624.714,595.775,1629.164L595.775,1633.614"/><path marker-end="url(#my-svg_flowchart-pointEnd)" style="stroke:#333333;stroke-width:1px;" class="edge-thickness-normal edge-pattern-solid flowchart-link LS-G2 LE-G4" id="L-G2-G4-0" d="M293.673,1679.914L293.673,1684.081C293.673,1688.247,293.673,1696.581,310.619,1711.604C327.565,1726.627,361.458,1748.339,378.404,1759.196L395.35,1770.052"/><path marker-end="url(#my-svg_flowchart-pointEnd)" style="stroke:#333333;stroke-width:1px;" class="edge-thickness-normal edge-pattern-solid flowchart-link LS-G3 LE-G4" id="L-G3-G4-0" d="M595.775,1679.914L595.775,1684.081C595.775,1688.247,595.775,1696.581,578.136,1711.72C560.498,1726.859,525.22,1748.803,507.582,1759.776L489.943,1770.748"/><path marker-end="url(#my-svg_flowchart-pointEnd)" style="stroke:#333333;stroke-width:1px;" class="edge-thickness-normal edge-pattern-solid flowchart-link LS-G4 LE-GERR" id="L-G4-GERR-0" d="M396.932,1824.335L372.738,1837.148C348.545,1849.961,300.158,1875.587,275.964,1892.85C251.771,1910.113,251.771,1919.013,251.771,1923.463L251.771,1927.913"/><path marker-end="url(#my-svg_flowchart-pointEnd)" style="stroke:#333333;stroke-width:1px;" class="edge-thickness-normal edge-pattern-solid flowchart-link LS-G4 LE-G5" id="L-G4-G5-0" d="M476.89,1835.133L487.748,1846.146C498.606,1857.16,520.323,1879.186,531.182,1894.65C542.04,1910.113,542.04,1919.013,542.04,1923.463L542.04,1927.913"/><path marker-end="url(#my-svg_flowchart-pointEnd)" style="stroke:#333333;stroke-width:1px;" class="edge-thickness-normal edge-pattern-solid flowchart-link LS-G5 LE-G6" id="L-G5-G6-0" d="M542.04,1974.213L542.04,1978.38C542.04,1982.546,542.04,1990.88,542.106,1998.413C542.172,2005.947,542.304,2012.68,542.37,2016.047L542.436,2019.414"/><path marker-end="url(#my-svg_flowchart-pointEnd)" style="stroke:#333333;stroke-width:1px;" class="edge-thickness-normal edge-pattern-solid flowchart-link LS-G6 LE-GERR2" id="L-G6-GERR2-0" d="M495.821,2121.641L471.323,2134.677C446.824,2147.714,397.827,2173.787,373.328,2191.273C348.83,2208.759,348.83,2217.659,348.83,2222.109L348.83,2226.559"/><path marker-end="url(#my-svg_flowchart-pointEnd)" style="stroke:#333333;stroke-width:1px;" class="edge-thickness-normal edge-pattern-solid flowchart-link LS-G6 LE-GOUT" id="L-G6-GOUT-0" d="M573.441,2137.458L581.274,2147.858C589.107,2158.259,604.773,2179.059,612.606,2193.909C620.439,2208.759,620.439,2217.659,620.439,2222.109L620.439,2226.559"/><path marker-end="url(#my-svg_flowchart-pointEnd)" style="stroke:#333333;stroke-width:1px;" class="edge-thickness-normal edge-pattern-solid flowchart-link LS-GOUT LE-Z" id="L-GOUT-Z-0" d="M620.439,2272.859L620.439,2277.026C620.439,2281.193,620.439,2289.526,620.439,2297.859C620.439,2306.193,620.439,2314.526,620.439,2321.976C620.439,2329.426,620.439,2335.993,620.439,2339.276L620.439,2342.559"/></g><g class="edgeLabels"><g class="edgeLabel"><g transform="translate(0, 0)" class="label"><rect height="0" width="0" ry="0" rx="0"/><text style=""><tspan class="row" x="0" dy="1em" xml:space="preserve"/></text></g></g><g class="edgeLabel"><g transform="translate(0, 0)" class="label"><rect height="0" width="0" ry="0" rx="0"/><text style=""><tspan class="row" x="0" dy="1em" xml:space="preserve"/></text></g></g><g class="edgeLabel"><g transform="translate(0, 0)" class="label"><rect height="0" width="0" ry="0" rx="0"/><text style=""><tspan class="row" x="0" dy="1em" xml:space="preserve"/></text></g></g><g class="edgeLabel"><g transform="translate(0, 0)" class="label"><rect height="0" width="0" ry="0" rx="0"/><text style=""><tspan class="row" x="0" dy="1em" xml:space="preserve"/></text></g></g><g class="edgeLabel"><g transform="translate(0, 0)" class="label"><rect height="0" width="0" ry="0" rx="0"/><text style=""><tspan class="row" x="0" dy="1em" xml:space="preserve"/></text></g></g><g class="edgeLabel"><g transform="translate(0, 0)" class="label"><rect height="0" width="0" ry="0" rx="0"/><text style=""><tspan class="row" x="0" dy="1em" xml:space="preserve"/></text></g></g><g transform="translate(116.140625, 770.984375)" class="edgeLabel"><g transform="translate(-7.8359375, -7)" class="label"><rect height="14.000273704528809" width="15.656556129455566" ry="0" rx="0"/><text style=""><tspan class="row" x="0" dy="1em" xml:space="preserve">No</tspan></text></g></g><g transform="translate(335.2265625, 770.984375)" class="edgeLabel"><g transform="translate(-8.8955078125, -7)" class="label"><rect height="14.000273704528809" width="17.774166107177734" ry="0" rx="0"/><text style=""><tspan class="row" x="0" dy="1em" xml:space="preserve">Yes</tspan></text></g></g><g transform="translate(228.6435546875, 1005.2734375)" class="edgeLabel"><g transform="translate(-7.8359375, -7)" class="label"><rect height="14.000273704528809" width="15.656556129455566" ry="0" rx="0"/><text style=""><tspan class="row" x="0" dy="1em" xml:space="preserve">No</tspan></text></g></g><g transform="translate(441.8095703125, 1005.2734375)" class="edgeLabel"><g transform="translate(-8.8955078125, -7)" class="label"><rect height="14.000273704528809" width="17.774166107177734" ry="0" rx="0"/><text style=""><tspan class="row" x="0" dy="1em" xml:space="preserve">Yes</tspan></text></g></g><g class="edgeLabel"><g transform="translate(0, 0)" class="label"><rect height="0" width="0" ry="0" rx="0"/><text style=""><tspan class="row" x="0" dy="1em" xml:space="preserve"/></text></g></g><g class="edgeLabel"><g transform="translate(0, 0)" class="label"><rect height="0" width="0" ry="0" rx="0"/><text style=""><tspan class="row" x="0" dy="1em" xml:space="preserve"/></text></g></g><g class="edgeLabel"><g transform="translate(0, 0)" class="label"><rect height="0" width="0" ry="0" rx="0"/><text style=""><tspan class="row" x="0" dy="1em" xml:space="preserve"/></text></g></g><g class="edgeLabel"><g transform="translate(0, 0)" class="label"><rect height="0" width="0" ry="0" rx="0"/><text style=""><tspan class="row" x="0" dy="1em" xml:space="preserve"/></text></g></g><g transform="translate(293.6728515625, 1606.9140625)" class="edgeLabel"><g transform="translate(-8.8955078125, -7)" class="label"><rect height="14.000273704528809" width="17.774166107177734" ry="0" rx="0"/><text style=""><tspan class="row" x="0" dy="1em" xml:space="preserve">Yes</tspan></text></g></g><g transform="translate(595.77490234375, 1606.9140625)" class="edgeLabel"><g transform="translate(-7.8359375, -7)" class="label"><rect height="14.000273704528809" width="15.656556129455566" ry="0" rx="0"/><text style=""><tspan class="row" x="0" dy="1em" xml:space="preserve">No</tspan></text></g></g><g class="edgeLabel"><g transform="translate(0, 0)" class="label"><rect height="0" width="0" ry="0" rx="0"/><text style=""><tspan class="row" x="0" dy="1em" xml:space="preserve"/></text></g></g><g class="edgeLabel"><g transform="translate(0, 0)" class="label"><rect height="0" width="0" ry="0" rx="0"/><text style=""><tspan class="row" x="0" dy="1em" xml:space="preserve"/></text></g></g><g transform="translate(251.7705078125, 1901.212890625)" class="edgeLabel"><g transform="translate(-7.8359375, -7)" class="label"><rect height="14.000273704528809" width="15.656556129455566" ry="0" rx="0"/><text style=""><tspan class="row" x="0" dy="1em" xml:space="preserve">No</tspan></text></g></g><g transform="translate(542.0400390625, 1901.212890625)" class="edgeLabel"><g transform="translate(-8.8955078125, -7)" class="label"><rect height="14.000273704528809" width="17.774166107177734" ry="0" rx="0"/><text style=""><tspan class="row" x="0" dy="1em" xml:space="preserve">Yes</tspan></text></g></g><g class="edgeLabel"><g transform="translate(0, 0)" class="label"><rect height="0" width="0" ry="0" rx="0"/><text style=""><tspan class="row" x="0" dy="1em" xml:space="preserve"/></text></g></g><g transform="translate(348.82958984375, 2199.859375)" class="edgeLabel"><g transform="translate(-7.8359375, -7)" class="label"><rect height="14.000273704528809" width="15.656556129455566" ry="0" rx="0"/><text style=""><tspan class="row" x="0" dy="1em" xml:space="preserve">No</tspan></text></g></g><g transform="translate(620.43896484375, 2199.859375)" class="edgeLabel"><g transform="translate(-8.8955078125, -7)" class="label"><rect height="14.000273704528809" width="17.774166107177734" ry="0" rx="0"/><text style=""><tspan class="row" x="0" dy="1em" xml:space="preserve">Yes</tspan></text></g></g><g class="edgeLabel"><g transform="translate(0, 0)" class="label"><rect height="0" width="0" ry="0" rx="0"/><text style=""><tspan class="row" x="0" dy="1em" xml:space="preserve"/></text></g></g></g><g class="nodes"><g transform="translate(441.8095703125, 1513.09375)" data-id="G1" data-node="true" id="flowchart-G1-27" class="node default decision flowchart-label"><polygon style="" transform="translate(-61.8203125,61.8203125)" class="label-container" points="61.8203125,0 123.640625,-61.8203125 61.8203125,-123.640625 0,-61.8203125"/><g transform="translate(0, -7)" style="" class="label"><rect/><text style=""><tspan class="row" x="0" dy="1em" xml:space="preserve">Radius available</tspan></text></g></g><g transform="translate(441.8095703125, 1380.7734375)" data-id="G0" data-node="true" id="flowchart-G0-25" class="node default input flowchart-label"><rect height="41" width="126.3125" y="-20.5" x="-63.15625" ry="0" rx="0" style="" class="basic label-container"/><g transform="translate(0, -13)" style="" class="label"><rect/><text style=""><tspan class="row" x="0" dy="1em" xml:space="preserve">Input ground point</tspan><tspan class="row" x="0" dy="1em" xml:space="preserve">lat, lon, optional radius</tspan></text></g></g><g transform="translate(293.6728515625, 1659.4140625)" data-id="G2" data-node="true" id="flowchart-G2-29" class="node default process flowchart-label"><rect height="41" width="295.265625" y="-20.5" x="-147.6328125" ry="0" rx="0" style="" class="basic label-container"/><g transform="translate(0, -13)" style="" class="label"><rect/><text style=""><tspan class="row" x="0" dy="1em" xml:space="preserve">Use 3-D ground point</tspan><tspan class="row" x="0" dy="1em" xml:space="preserve">camera.set_universal_ground_with_radius(lat, lon, radius)</tspan></text></g></g><g transform="translate(595.77490234375, 1659.4140625)" data-id="G3" data-node="true" id="flowchart-G3-31" class="node default process flowchart-label"><rect height="41" width="197.28125" y="-20.5" x="-98.640625" ry="0" rx="0" style="" class="basic label-container"/><g transform="translate(0, -13)" style="" class="label"><rect/><text style=""><tspan class="row" x="0" dy="1em" xml:space="preserve">Use surface model</tspan><tspan class="row" x="0" dy="1em" xml:space="preserve">camera.set_universal_ground(lat, lon)</tspan></text></g></g><g transform="translate(441.8095703125, 1799.5634765625)" data-id="G4" data-node="true" id="flowchart-G4-33" class="node default decision flowchart-label"><polygon style="" transform="translate(-69.6494140625,69.6494140625)" class="label-container" points="69.6494140625,0 139.298828125,-69.6494140625 69.6494140625,-139.298828125 0,-69.6494140625"/><g transform="translate(0, -7)" style="" class="label"><rect/><text style=""><tspan class="row" x="0" dy="1em" xml:space="preserve">Projection succeeds</tspan></text></g></g><g transform="translate(251.7705078125, 1953.712890625)" data-id="GERR" data-node="true" id="flowchart-GERR-37" class="node default error flowchart-label"><rect height="41" width="127.65625" y="-20.5" x="-63.828125" ry="0" rx="0" style="" class="basic label-container"/><g transform="translate(0, -13)" style="" class="label"><rect/><text style=""><tspan class="row" x="0" dy="1em" xml:space="preserve">Reject point</tspan><tspan class="row" x="0" dy="1em" xml:space="preserve">not visible in the image</tspan></text></g></g><g transform="translate(542.0400390625, 1953.712890625)" data-id="G5" data-node="true" id="flowchart-G5-39" class="node default process flowchart-label"><rect height="41" width="173.265625" y="-20.5" x="-86.6328125" ry="0" rx="0" style="" class="basic label-container"/><g transform="translate(0, -13)" style="" class="label"><rect/><text style=""><tspan class="row" x="0" dy="1em" xml:space="preserve">Read projected image coordinate</tspan><tspan class="row" x="0" dy="1em" xml:space="preserve">camera.sample(), camera.line()</tspan></text></g></g><g transform="translate(542.0400390625, 2096.0361328125)" data-id="G6" data-node="true" id="flowchart-G6-41" class="node default decision flowchart-label"><polygon style="" transform="translate(-71.8232421875,71.8232421875)" class="label-container" points="71.8232421875,0 143.646484375,-71.8232421875 71.8232421875,-143.646484375 0,-71.8232421875"/><g transform="translate(0, -7)" style="" class="label"><rect/><text style=""><tspan class="row" x="0" dy="1em" xml:space="preserve">Inside image bounds</tspan></text></g></g><g transform="translate(348.82958984375, 2252.359375)" data-id="GERR2" data-node="true" id="flowchart-GERR2-43" class="node default error flowchart-label"><rect height="41" width="114.970703125" y="-20.5" x="-57.4853515625" ry="0" rx="0" style="" class="basic label-container"/><g transform="translate(0, -13)" style="" class="label"><rect/><text style=""><tspan class="row" x="0" dy="1em" xml:space="preserve">Projected point</tspan><tspan class="row" x="0" dy="1em" xml:space="preserve">outside image extent</tspan></text></g></g><g transform="translate(620.43896484375, 2252.359375)" data-id="GOUT" data-node="true" id="flowchart-GOUT-45" class="node default output flowchart-label"><rect height="41" width="98.625" y="-20.5" x="-49.3125" ry="0" rx="0" style="" class="basic label-container"/><g transform="translate(0, -13)" style="" class="label"><rect/><text style=""><tspan class="row" x="0" dy="1em" xml:space="preserve">Image coordinate</tspan><tspan class="row" x="0" dy="1em" xml:space="preserve">sample, line</tspan></text></g></g><g transform="translate(228.330078125, 538.5)" data-id="I1" data-node="true" id="flowchart-I1-9" class="node default process flowchart-label"><rect height="41" width="167.265625" y="-20.5" x="-83.6328125" ry="0" rx="0" style="" class="basic label-container"/><g transform="translate(0, -13)" style="" class="label"><rect/><text style=""><tspan class="row" x="0" dy="1em" xml:space="preserve">Set camera state</tspan><tspan class="row" x="0" dy="1em" xml:space="preserve">camera.set_image(sample, line)</tspan></text></g></g><g transform="translate(228.330078125, 447.5)" data-id="I0" data-node="true" id="flowchart-I0-7" class="node default input flowchart-label"><rect height="41" width="126.296875" y="-20.5" x="-63.1484375" ry="0" rx="0" style="" class="basic label-container"/><g transform="translate(0, -13)" style="" class="label"><rect/><text style=""><tspan class="row" x="0" dy="1em" xml:space="preserve">Input image coordinate</tspan><tspan class="row" x="0" dy="1em" xml:space="preserve">sample, line</tspan></text></g></g><g transform="translate(228.330078125, 673.9921875)" data-id="I2" data-node="true" id="flowchart-I2-11" class="node default decision flowchart-label"><polygon style="" transform="translate(-64.9921875,64.9921875)" class="label-container" points="64.9921875,0 129.984375,-64.9921875 64.9921875,-129.984375 0,-64.9921875"/><g transform="translate(0, -7)" style="" class="label"><rect/><text style=""><tspan class="row" x="0" dy="1em" xml:space="preserve">Valid image point</tspan></text></g></g><g transform="translate(116.140625, 888.12890625)" data-id="IERR" data-node="true" id="flowchart-IERR-13" class="node default error flowchart-label"><rect height="41" width="157.296875" y="-20.5" x="-78.6484375" ry="0" rx="0" style="" class="basic label-container"/><g transform="translate(0, -13)" style="" class="label"><rect/><text style=""><tspan class="row" x="0" dy="1em" xml:space="preserve">Reject point</tspan><tspan class="row" x="0" dy="1em" xml:space="preserve">outside valid image geometry</tspan></text></g></g><g transform="translate(335.2265625, 888.12890625)" data-id="I3" data-node="true" id="flowchart-I3-15" class="node default decision flowchart-label"><polygon style="" transform="translate(-85.14453125,85.14453125)" class="label-container" points="85.14453125,0 170.2890625,-85.14453125 85.14453125,-170.2890625 0,-85.14453125"/><g transform="translate(0, -7)" style="" class="label"><rect/><text style=""><tspan class="row" x="0" dy="1em" xml:space="preserve">Surface intersection exists</tspan></text></g></g><g transform="translate(228.6435546875, 1057.7734375)" data-id="IERR2" data-node="true" id="flowchart-IERR2-17" class="node default error flowchart-label"><rect height="41" width="179.72265625" y="-20.5" x="-89.861328125" ry="0" rx="0" style="" class="basic label-container"/><g transform="translate(0, -13)" style="" class="label"><rect/><text style=""><tspan class="row" x="0" dy="1em" xml:space="preserve">No surface intersection</tspan><tspan class="row" x="0" dy="1em" xml:space="preserve">ray misses target or surface model</tspan></text></g></g><g transform="translate(441.8095703125, 1057.7734375)" data-id="I4" data-node="true" id="flowchart-I4-19" class="node default process flowchart-label"><rect height="41" width="146.609375" y="-20.5" x="-73.3046875" ry="0" rx="0" style="" class="basic label-container"/><g transform="translate(0, -13)" style="" class="label"><rect/><text style=""><tspan class="row" x="0" dy="1em" xml:space="preserve">Get surface point</tspan><tspan class="row" x="0" dy="1em" xml:space="preserve">camera.get_surface_point()</tspan></text></g></g><g transform="translate(441.8095703125, 1148.7734375)" data-id="I5" data-node="true" id="flowchart-I5-21" class="node default process flowchart-label"><rect height="41" width="164.29296875" y="-20.5" x="-82.146484375" ry="0" rx="0" style="" class="basic label-container"/><g transform="translate(0, -13)" style="" class="label"><rect/><text style=""><tspan class="row" x="0" dy="1em" xml:space="preserve">Read ground coordinates</tspan><tspan class="row" x="0" dy="1em" xml:space="preserve">latitude, longitude, local radius</tspan></text></g></g><g transform="translate(441.8095703125, 1239.7734375)" data-id="IOUT" data-node="true" id="flowchart-IOUT-23" class="node default output flowchart-label"><rect height="41" width="83.984375" y="-20.5" x="-41.9921875" ry="0" rx="0" style="" class="basic label-container"/><g transform="translate(0, -13)" style="" class="label"><rect/><text style=""><tspan class="row" x="0" dy="1em" xml:space="preserve">Ground point</tspan><tspan class="row" x="0" dy="1em" xml:space="preserve">lat, lon, radius</tspan></text></g></g><g transform="translate(228.330078125, 227.5)" data-id="C" data-node="true" id="flowchart-C-3" class="node default process flowchart-label"><rect height="41" width="132.958984375" y="-20.5" x="-66.4794921875" ry="0" rx="0" style="" class="basic label-container"/><g transform="translate(0, -13)" style="" class="label"><rect/><text style=""><tspan class="row" x="0" dy="1em" xml:space="preserve">Construct camera model</tspan><tspan class="row" x="0" dy="1em" xml:space="preserve">cube.camera()</tspan></text></g></g><g transform="translate(228.330078125, 136.5)" data-id="B" data-node="true" id="flowchart-B-1" class="node default process flowchart-label"><rect height="41" width="105.3125" y="-20.5" x="-52.65625" ry="0" rx="0" style="" class="basic label-container"/><g transform="translate(0, -13)" style="" class="label"><rect/><text style=""><tspan class="row" x="0" dy="1em" xml:space="preserve">Open cube</tspan><tspan class="row" x="0" dy="1em" xml:space="preserve">Cube.open(path, r)</tspan></text></g></g><g transform="translate(228.330078125, 312.5)" data-id="D" data-node="true" id="flowchart-D-5" class="node default process flowchart-label"><rect height="29" width="148.296875" y="-14.5" x="-74.1484375" ry="0" rx="0" style="" class="basic label-container"/><g transform="translate(0, -7)" style="" class="label"><rect/><text style=""><tspan class="row" x="0" dy="1em" xml:space="preserve">Select conversion operation</tspan></text></g></g><g transform="translate(228.330078125, 20.5)" data-id="A" data-node="true" id="flowchart-A-0" class="node default input flowchart-label"><rect height="41" width="116.328125" y="-20.5" x="-58.1640625" ry="0" rx="0" style="" class="basic label-container"/><g transform="translate(0, -13)" style="" class="label"><rect/><text style=""><tspan class="row" x="0" dy="1em" xml:space="preserve">Initialized ISIS Cube</tspan><tspan class="row" x="0" dy="1em" xml:space="preserve">SPICE-ready .cub</tspan></text></g></g><g transform="translate(620.43896484375, 2368.359375)" data-id="Z" data-node="true" id="flowchart-Z-47" class="node default output flowchart-label"><rect height="41" width="148.298828125" y="-20.5" x="-74.1494140625" ry="0" rx="0" style="" class="basic label-container"/><g transform="translate(0, -13)" style="" class="label"><rect/><text style=""><tspan class="row" x="0" dy="1em" xml:space="preserve">Bidirectional image/ground</tspan><tspan class="row" x="0" dy="1em" xml:space="preserve">coordinate conversion</tspan></text></g></g></g></g></g></svg>